<?xml version="1.0" encoding="iso-8859-1"?>
<!-- Generator: Adobe Illustrator 19.0.0, SVG Export Plug-In . SVG Version: 6.00 Build 0)  -->
<svg version="1.1" id="Layer_1" xmlns="http://www.w3.org/2000/svg" xmlns:xlink="http://www.w3.org/1999/xlink" x="0px" y="0px"
	 viewBox="0 0 500 500" style="enable-background:new 0 0 500 500;" xml:space="preserve">
<circle style="fill:#06C67C;" cx="250" cy="224" r="224"/>
<path style="fill:#0FB57E;" d="M408.4,382.4c-87.2,87.2-228.8,87.2-316,0c-88-87.2-88-228.8-0.8-316.8"/>
<path style="fill:#3FCAD1;" d="M498,500c-36.8-78.4-142.4-55.2-248-55.2S38.8,421.6,2,500H498z"/>
<path style="fill:#BEF4F2;" d="M447.6,500c-31.2-78.4-108-133.6-197.6-133.6S83.6,421.6,52.4,500H447.6z"/>
<path style="fill:#8CE5E5;" d="M447.6,500c-31.2-78.4-108-110.4-197.6-110.4S83.6,421.6,52.4,500H447.6z"/>
<polygon style="fill:#72D3D1;" points="314.8,500 185.2,500 216.4,422.4 283.6,422.4 "/>
<g>
	<ellipse style="fill:#ED751B;" cx="205.2" cy="422.4" rx="12.8" ry="23.2"/>
	<ellipse style="fill:#ED751B;" cx="294.8" cy="422.4" rx="12.8" ry="23.2"/>
</g>
<path style="fill:#1E4784;" d="M90.8,229.6c22.4-40,42.4-54.4,52.8-48.8c10.4,6.4,8,30.4-15.2,70.4c-22.4,40-58.4,82.4-68.8,76
	C50,321.6,68.4,269.6,90.8,229.6z"/>
<g>
	<path style="fill:#00233F;" d="M144.4,180.8c10.4,6.4,8,30.4-15.2,70.4c-22.4,40-58.4,82.4-68.8,76"/>
	<path style="fill:#00233F;" d="M409.2,229.6c-22.4-40-42.4-54.4-52.8-48.8c-10.4,6.4-8,30.4,15.2,70.4c22.4,40,58.4,82.4,68.8,76
		C450,321.6,431.6,269.6,409.2,229.6z"/>
</g>
<path style="fill:#1E4784;" d="M355.6,180.8c-10.4,6.4-8,30.4,15.2,70.4c22.4,40,58.4,82.4,68.8,76"/>
<path style="fill:#2264B2;" d="M401.2,284c0,100.8-68,151.2-151.2,151.2c-84,0-151.2-50.4-151.2-151.2S166,63.2,250,63.2
	S401.2,182.4,401.2,284z"/>
<path style="fill:#1E4784;" d="M98.8,284c0-100.8,68-220.8,151.2-220.8c84,0,151.2,120,151.2,220.8S334,435.2,250,435.2"/>
<path style="fill:#00233F;" d="M250,63.2c84,0,151.2,120,151.2,220.8S334,435.2,250,435.2"/>
<path style="fill:#FFFFFF;" d="M130,256.8c0-70.4,53.6-105.6,120-105.6s120,35.2,120,105.6s-53.6,153.6-120,153.6
	C183.6,409.6,130,326.4,130,256.8z"/>
<path style="fill:#E5F2F9;" d="M130,256.8c0-70.4,53.6-105.6,120-105.6s120,35.2,120,105.6s-53.6,153.6-120,153.6"/>
<path style="fill:#CADDEA;" d="M250,151.2c66.4,0,120,35.2,120,105.6s-53.6,153.6-120,153.6"/>
<circle style="fill:#FFFFFF;" cx="203.6" cy="157.6" r="46.4"/>
<path style="fill:#E5F2F9;" d="M203.6,111.2c25.6,0,46.4,20.8,46.4,46.4S229.2,204,203.6,204s-46.4-20.8-46.4-46.4"/>
<circle style="fill:#CADDEA;" cx="296.4" cy="157.6" r="46.4"/>
<g>
	<path style="fill:#3DE09D;" d="M203.6,94.4c-8,0.8-13.6,4-13.6,8l28-1.6C218,96.8,211.6,93.6,203.6,94.4z"/>
	<path style="fill:#3DE09D;" d="M296.4,94.4c8,0.8,13.6,4,13.6,8l-28-2.4C282,96.8,288.4,93.6,296.4,94.4z"/>
</g>
<g>
	<path style="fill:#FFFFFF;" d="M198,156.8c-18.4,0-33.6,4-33.6,9.6s15.2,3.2,33.6,3.2s33.6,2.4,33.6-3.2
		C231.6,160.8,217.2,156.8,198,156.8z"/>
	<path style="fill:#FFFFFF;" d="M302,156.8c-18.4,0-33.6,4-33.6,9.6s15.2,3.2,33.6,3.2s33.6,2.4,33.6-3.2
		C335.6,160.8,320.4,156.8,302,156.8z"/>
</g>
<g>
	<path style="fill:#CADDEA;" d="M219.6,149.6c0,8-6.4,13.6-13.6,13.6c-7.2,0-13.6-6.4-13.6-13.6S198.8,136,206,136
		C213.2,136,219.6,142.4,219.6,149.6z"/>
	<path style="fill:#CADDEA;" d="M309.2,149.6c0,8-6.4,13.6-13.6,13.6s-13.6-6.4-13.6-13.6s6.4-13.6,13.6-13.6
		C303.6,136,309.2,142.4,309.2,149.6z"/>
</g>
<path style="fill:#1E4784;" d="M219.6,145.6c0,7.2-6.4,13.6-13.6,13.6c-7.2,0-13.6-6.4-13.6-13.6c0-8,6.4-13.6,13.6-13.6
	C213.2,132,219.6,138.4,219.6,145.6z"/>
<path style="fill:#00233F;" d="M206,132c8,0,13.6,6.4,13.6,13.6c0,7.2-6.4,13.6-13.6,13.6"/>
<path style="fill:#1E4784;" d="M309.2,145.6c0,7.2-6.4,13.6-13.6,13.6s-13.6-6.4-13.6-13.6c0-8,6.4-13.6,13.6-13.6
	C303.6,132,309.2,138.4,309.2,145.6z"/>
<path style="fill:#00233F;" d="M295.6,132c8,0,13.6,6.4,13.6,13.6c0,7.2-6.4,13.6-13.6,13.6"/>
<polygon style="fill:#EF9D18;" points="276.4,170.4 250,189.6 223.6,170.4 250,156.8 "/>
<polygon style="fill:#ED751B;" points="276.4,170.4 250,189.6 223.6,170.4 250,178.4 "/>
<g>
	<circle style="fill:#FFFFFF;" cx="250" cy="224" r="5.6"/>
	<circle style="fill:#FFFFFF;" cx="250" cy="256" r="5.6"/>
	<circle style="fill:#FFFFFF;" cx="250" cy="288.8" r="5.6"/>
	<circle style="fill:#FFFFFF;" cx="250" cy="320.8" r="5.6"/>
</g>
<g>
	<path style="fill:#2264B2;" d="M244.4,72c0.8,3.2-8,8.8-20,12.8s-23.2,4.8-24,1.6c-0.8-3.2,8-8.8,20-12.8S243.6,68.8,244.4,72z"/>
	
		<ellipse transform="matrix(-0.7755 -0.6313 0.6313 -0.7755 77.5859 449.9939)" style="fill:#2264B2;" cx="118.795" cy="211.203" rx="8" ry="18.399"/>
</g>
<path style="fill:#C7F4FF;" d="M154,132l-12-7.2l6.4-1.6c1.6-0.8,3.2-2.4,2.4-4s-2.4-3.2-4-2.4L134,120l0,0l-6.4-3.2V82.4l6.4-3.2
	l0,0l12.8,3.2h0.8c1.6,0,3.2-0.8,3.2-2.4c0.8-1.6-0.8-4-2.4-4l-6.4-1.6l12-7.2c1.6-0.8,2.4-3.2,1.6-4.8c-0.8-1.6-3.2-2.4-4.8-1.6
	l-12,7.2l1.6-6.4c0.8-1.6-0.8-4-2.4-4c-1.6-0.8-4,0.8-4,2.4l-4,12.8l0,0l-6.4,3.2L94,58.4V52l0,0l10.4-9.6c1.6-1.6,1.6-3.2,0-4.8
	s-3.2-1.6-4.8,0L94,42.4V28.8c0-1.6-1.6-3.2-3.2-3.2s-3.2,1.6-3.2,3.2v13.6l-4.8-4.8c-1.6-1.6-3.2-1.6-4.8,0s-1.6,3.2,0,4.8l9.6,9.6
	l0,0v7.2L58,76.8l-6.4-4l0,0l-4-12.8c0-2.4-2.4-3.2-4-2.4c-1.6,0-3.2,2.4-2.4,4l1.6,6.4l-12-7.2c-1.6-0.8-4,0-4.8,1.6s0,4,1.6,4.8
	l12,7.2L33.2,76c-1.6,0.8-3.2,2.4-2.4,4c0,1.6,1.6,2.4,3.2,2.4h0.8l12.8-3.2l0,0l6.4,3.2v34.4l-6.4,3.2l0,0l-12.8-3.2
	c-1.6-0.8-4,0.8-4,2.4c-0.8,1.6,0.8,4,2.4,4l6.4,1.6l-12,7.2c-1.6,0.8-2.4,3.2-1.6,4.8c0.8,0.8,2.4,1.6,3.2,1.6s0.8,0,1.6-0.8
	l12-7.2l-1.6,6.4c-0.8,1.6,0.8,4,2.4,4h0.8c1.6,0,3.2-0.8,3.2-2.4l3.2-12.8l0,0l6.4-3.2L86.8,140v7.2l0,0l-9.6,9.6
	c-1.6,1.6-1.6,3.2,0,4.8c0.8,0.8,1.6,0.8,2.4,0.8s1.6,0,2.4-0.8l4.8-4.8v13.6c0,1.6,1.6,3.2,3.2,3.2s3.2-1.6,3.2-3.2v-13.6l4.8,4.8
	c0.8,0.8,1.6,0.8,2.4,0.8s1.6,0,2.4-0.8c1.6-1.6,1.6-3.2,0-4.8l-9.6-9.6l0,0V140l29.6-17.6l6.4,3.2l0,0l3.2,12.8
	c0.8,1.6,1.6,2.4,3.2,2.4h0.8c1.6-0.8,3.2-2.4,2.4-4l-1.6-6.4l12,7.2c0.8,0,0.8,0.8,1.6,0.8c1.6,0,2.4-0.8,3.2-1.6
	C156.4,135.2,155.6,132.8,154,132z M120.4,112.8L98,100l22.4-12.8V112.8z M117.2,80.8L94.8,93.6V67.2L117.2,80.8z M87.6,67.2v26.4
	L65.2,80.8L87.6,67.2z M61.2,86.4l22.4,12.8L61.2,112V86.4z M64.4,118.4l22.4-12.8V132L64.4,118.4z M94,132v-26.4l22.4,12.8L94,132z
	"/>
<path style="fill:#61CCF2;" d="M154,132l-12-7.2l6.4-1.6c1.6-0.8,3.2-2.4,2.4-4s-2.4-3.2-4-2.4L134,120l0,0l-6.4-3.2V82.4l6.4-3.2
	l0,0l12.8,3.2h0.8c1.6,0,3.2-0.8,3.2-2.4c0.8-1.6-0.8-4-2.4-4l-6.4-1.6l12-7.2c1.6-0.8,2.4-3.2,1.6-4.8c-0.8-1.6-3.2-2.4-4.8-1.6
	l-12,7.2l1.6-6.4c0.8-1.6-0.8-4-2.4-4c-1.6-0.8-4,0.8-4,2.4l-4,12.8l0,0l-6.4,3.2L94,58.4V52l0,0l10.4-9.6c1.6-1.6,1.6-3.2,0-4.8
	s-3.2-1.6-4.8,0L94,42.4V28.8c0-1.6-1.6-3.2-3.2-3.2l0,0v148.8l0,0c1.6,0,3.2-1.6,3.2-3.2v-13.6l4.8,4.8c0.8,0.8,1.6,0.8,2.4,0.8
	s1.6,0,2.4-0.8c1.6-1.6,1.6-3.2,0-4.8L94,148l0,0v-7.2l29.6-17.6l6.4,3.2l0,0l3.2,12.8c0.8,1.6,1.6,2.4,3.2,2.4h0.8
	c1.6-0.8,3.2-2.4,2.4-4l-1.6-6.4l12,7.2c0.8,0,0.8,0.8,1.6,0.8c1.6,0,2.4-0.8,3.2-1.6C156.4,135.2,155.6,132.8,154,132z M94,67.2
	L116.4,80L94,92.8V67.2z M94,132v-26.4l22.4,12.8L94,132z M120.4,112.8L98,100l22.4-12.8V112.8z"/>
<g>
</g>
<g>
</g>
<g>
</g>
<g>
</g>
<g>
</g>
<g>
</g>
<g>
</g>
<g>
</g>
<g>
</g>
<g>
</g>
<g>
</g>
<g>
</g>
<g>
</g>
<g>
</g>
<g>
</g>
</svg>
